<svg width="20" height="20" viewBox="0 0 20 20" fill="none" xmlns="http://www.w3.org/2000/svg">
<g clip-path="url(#clip0_12_33)">
<path d="M5.54102 5.10418C4.7606 6.70837 4.77289 9.113 6.54789 12.0713C6.81244 12.5122 7.04653 12.8582 7.25758 13.17L7.2835 13.2082C7.56573 13.625 7.84213 14.0331 8.0328 14.5018C8.14969 14.7891 8.23037 15.0866 8.27848 15.4167H11.7215C11.7696 15.0866 11.8503 14.7891 11.9672 14.5018C12.1578 14.0331 12.4342 13.625 12.7164 13.2083L12.7165 13.2082L12.7165 13.2082L12.7424 13.17C12.9534 12.8582 13.1875 12.5122 13.4521 12.0713C15.2271 9.113 15.2394 6.70836 14.459 5.10418C13.6768 3.49639 12.0106 2.50004 10 2.50004C7.98944 2.50004 6.32321 3.49639 5.54102 5.10418ZM4.04231 4.37506C5.13516 2.12869 7.42729 0.833374 10 0.833374C12.5727 0.833374 14.8648 2.12869 15.9577 4.37507C17.0523 6.62505 16.8563 9.63708 14.8812 12.9288C14.5922 13.4106 14.3363 13.7886 14.1249 14.1008L14.1249 14.1008L14.1225 14.1043C13.808 14.5689 13.6293 14.839 13.511 15.1298C13.4032 15.3946 13.3333 15.7128 13.3333 16.25C13.3333 16.7103 12.9602 17.0834 12.4999 17.0834H7.50003C7.03979 17.0834 6.66669 16.7103 6.66669 16.25C6.66669 15.7128 6.59672 15.3946 6.48899 15.1298C6.37066 14.839 6.19196 14.5689 5.87742 14.1043L5.87508 14.1008L5.87506 14.1008C5.66371 13.7886 5.40781 13.4106 5.11874 12.9288C3.14369 9.63708 2.9477 6.62505 4.04231 4.37506ZM5.8333 19.1667C5.8333 18.7065 6.2064 18.3334 6.66663 18.3334H13.3333C13.7935 18.3334 14.1666 18.7065 14.1666 19.1667C14.1666 19.6269 13.7935 20 13.3333 20H6.66663C6.2064 20 5.8333 19.6269 5.8333 19.1667ZM9.16663 10C9.16663 9.5398 8.79354 9.16671 8.3333 9.16671C7.87306 9.16671 7.49997 9.5398 7.49997 10V10.8334C7.49997 12.2141 8.61925 13.3334 9.99997 13.3334C11.3807 13.3334 12.5 12.2141 12.5 10.8334V10C12.5 9.5398 12.1269 9.16671 11.6666 9.16671C11.2064 9.16671 10.8333 9.5398 10.8333 10V10.8334C10.8333 11.2936 10.4602 11.6667 9.99997 11.6667C9.53973 11.6667 9.16663 11.2936 9.16663 10.8334V10Z" fill="#0C111F"/>
</g>
<defs>
<clipPath id="clip0_12_33">
<rect width="20" height="20" fill="white"/>
</clipPath>
</defs>
</svg>
