<svg width="20" height="20" viewBox="0 0 20 20" fill="none" xmlns="http://www.w3.org/2000/svg">
<path fill-rule="evenodd" clip-rule="evenodd" d="M1.875 2.1875C1.875 1.66974 1.45526 1.25 0.9375 1.25C0.419733 1.25 0 1.66974 0 2.1875V17.8125C0 18.3302 0.419733 18.75 0.9375 18.75H19.0625C19.5802 18.75 20 18.3302 20 17.8125C20 17.2948 19.5802 16.875 19.0625 16.875H1.875V2.1875ZM19.7254 5.35041C20.0915 4.9843 20.0915 4.3907 19.7254 4.02459C19.3593 3.65848 18.7657 3.65848 18.3996 4.02459L12.5 9.92418L9.41291 6.83709C9.0468 6.47097 8.4532 6.47097 8.08709 6.83709L4.02459 10.8996C3.65848 11.2657 3.65848 11.8593 4.02459 12.2254C4.3907 12.5915 4.9843 12.5915 5.35041 12.2254L8.75 8.82582L11.8371 11.9129C12.0129 12.0887 12.2514 12.1875 12.5 12.1875C12.7486 12.1875 12.9871 12.0887 13.1629 11.9129L19.7254 5.35041Z" fill="#0C111F"/>
</svg>
