<svg width="20" height="20" viewBox="0 0 20 20" fill="none" xmlns="http://www.w3.org/2000/svg">
<g clip-path="url(#clip0_12_42)">
<path d="M15 8.82289L19.0625 0.9375M9.2012 11.0714C9.53219 10.6127 9.81612 10.1824 10.053 9.80128C10.6302 8.87266 11.6517 8.30374 12.6892 8.46461L16.9996 9.13293C18.437 9.3558 19.3635 10.8667 18.9727 12.351L18.8048 12.9893M9.2012 11.0714C7.95111 12.8035 6.02989 14.9387 3.4375 16.3455C3.4375 16.3455 4.34005 17.3251 7.5 18.1079M9.2012 11.0714L18.8048 12.9893M18.8048 12.9893L17.206 19.0625C12.705 19.0625 9.6027 18.6288 7.5 18.1079M7.5 18.1079C7.5 18.1079 9.63449 16.5625 10.3125 14.6875M12.2559 18.8596C12.2559 18.8596 13.3845 17.8125 14.0625 15.9375M3.75 0.9375C3.75 0.9375 3.74996 5 0.9375 5C3.75004 5 3.75 9.0625 3.75 9.0625C3.75 9.0625 3.75 5 6.5625 5C3.75 5 3.75 0.9375 3.75 0.9375Z" stroke="#0C111F" stroke-width="1.875" stroke-linecap="round" stroke-linejoin="round"/>
</g>
<defs>
<clipPath id="clip0_12_42">
<rect width="20" height="20" fill="white"/>
</clipPath>
</defs>
</svg>
