<svg width="48" height="48" viewBox="0 0 48 48" fill="none" xmlns="http://www.w3.org/2000/svg">
<path d="M32 2C32 3.10457 31.1046 4 30 4H26V6C26 6.03303 25.9992 6.06587 25.9976 6.09851C36.1054 7.10085 44 15.6285 44 26C44 37.0457 35.0457 46 24 46C12.9543 46 4 37.0457 4 26C4 15.6285 11.8946 7.10085 22.0024 6.09851C22.0008 6.06587 22 6.03303 22 6V4H18C16.8954 4 16 3.10457 16 2C16 0.895431 16.8954 0 18 0H30C31.1046 0 32 0.895431 32 2ZM24 10C15.1634 10 8 17.1634 8 26C8 34.8366 15.1634 42 24 42C32.8366 42 40 34.8366 40 26C40 17.1634 32.8366 10 24 10ZM39.4142 6.58579C40.1953 5.80474 41.4616 5.80474 42.2426 6.58579L45.4142 9.75736C46.1953 10.5384 46.1953 11.8047 45.4142 12.5858C44.6332 13.3668 43.3668 13.3668 42.5858 12.5858L39.4142 9.41421C38.6332 8.63317 38.6332 7.36684 39.4142 6.58579ZM26 20C26 18.8954 25.1046 18 24 18C22.8954 18 22 18.8954 22 20V25.3431C22 26.9344 22.6321 28.4606 23.7574 29.5858L27.5858 33.4142C28.3668 34.1953 29.6332 34.1953 30.4142 33.4142C31.1953 32.6332 31.1953 31.3668 30.4142 30.5858L26.5858 26.7574C26.2107 26.3823 26 25.8736 26 25.3431V20Z" fill="#0C111F"/>
</svg>
