<svg width="60" height="60" viewBox="0 0 60 60" fill="none" xmlns="http://www.w3.org/2000/svg">
<path d="M23.84 32.5H18.3225C17.2925 35.415 14.515 37.5 11.25 37.5C7.1075 37.5 3.75 34.1425 3.75 30C3.75 25.8575 7.1075 22.5 11.25 22.5C14.515 22.5 17.295 24.5875 18.325 27.5H23.84L32.5 12.5H40.425C41.455 9.5875 44.235 7.5 47.5 7.5C51.6425 7.5 55 10.8575 55 15C55 19.1425 51.6425 22.5 47.5 22.5C44.235 22.5 41.4575 20.415 40.4275 17.5H35.385L28.17 29.9975L35.3875 42.5H40.4275C41.455 39.5875 44.235 37.5 47.5 37.5C51.6425 37.5 55 40.8575 55 45C55 49.1425 51.6425 52.5 47.5 52.5C44.235 52.5 41.4575 50.415 40.4275 47.5H32.5L23.84 32.5ZM47.5 42.5C46.12 42.5 45 43.62 45 45C45 46.38 46.12 47.5 47.5 47.5C48.88 47.5 50 46.38 50 45C50 43.62 48.88 42.5 47.5 42.5ZM11.25 27.5C9.87 27.5 8.75 28.62 8.75 30C8.75 31.38 9.87 32.5 11.25 32.5C12.63 32.5 13.75 31.38 13.75 30C13.75 28.62 12.63 27.5 11.25 27.5ZM47.5 12.5C46.12 12.5 45 13.62 45 15C45 16.38 46.12 17.5 47.5 17.5C48.88 17.5 50 16.38 50 15C50 13.62 48.88 12.5 47.5 12.5Z" fill="#0C111F"/>
</svg>
