<svg width="60" height="60" viewBox="0 0 60 60" fill="none" xmlns="http://www.w3.org/2000/svg">
<g clip-path="url(#clip0_7_1222)">
<path d="M48.7501 31.4292L30.0001 49.9992L11.2501 31.4292C10.0134 30.2258 9.03925 28.7793 8.38901 27.1808C7.73878 25.5824 7.42655 23.8666 7.47199 22.1416C7.51743 20.4165 7.91955 18.7196 8.65304 17.1576C9.38652 15.5956 10.4355 14.2024 11.7339 13.0657C13.0322 11.929 14.5519 11.0734 16.1972 10.5529C17.8424 10.0324 19.5777 9.85818 21.2936 10.0412C23.0095 10.2243 24.6689 10.7606 26.1673 11.6165C27.6658 12.4724 28.9708 13.6292 30.0001 15.0142C31.034 13.6393 32.3405 12.4925 33.8379 11.6457C35.3353 10.7989 36.9914 10.2703 38.7025 10.093C40.4136 9.9157 42.1428 10.0935 43.7821 10.6152C45.4213 11.1369 46.9352 11.9914 48.229 13.1251C49.5228 14.2589 50.5687 15.6474 51.3012 17.204C52.0337 18.7605 52.437 20.4514 52.4859 22.171C52.5348 23.8906 52.2283 25.6017 51.5855 27.1973C50.9427 28.793 49.9774 30.2388 48.7501 31.4442" stroke="#0C111F" stroke-width="5" stroke-linecap="round" stroke-linejoin="round"/>
<path d="M30.0002 15L21.7677 23.2325C21.2991 23.7013 21.0358 24.3371 21.0358 25C21.0358 25.6629 21.2991 26.2987 21.7677 26.7675L23.1252 28.125C24.8502 29.85 27.6502 29.85 29.3752 28.125L31.8752 25.625C33.3671 24.1332 35.3905 23.2951 37.5002 23.2951C39.61 23.2951 41.6334 24.1332 43.1252 25.625L48.7502 31.25" stroke="#0C111F" stroke-width="5" stroke-linecap="round" stroke-linejoin="round"/>
<path d="M31.25 38.75L36.25 43.75" stroke="#0C111F" stroke-width="5" stroke-linecap="round" stroke-linejoin="round"/>
<path d="M37.5 32.5L42.5 37.5" stroke="#0C111F" stroke-width="5" stroke-linecap="round" stroke-linejoin="round"/>
</g>
<defs>
<clipPath id="clip0_7_1222">
<rect width="60" height="60" fill="white"/>
</clipPath>
</defs>
</svg>
