<svg width="56" height="56" viewBox="0 0 56 56" fill="none" xmlns="http://www.w3.org/2000/svg">
<path d="M6.25 6.75C7.6307 6.75 8.75 7.8693 8.75 9.25V44.25H49.75C51.1307 44.25 52.25 45.3693 52.25 46.75C52.25 48.1307 51.1307 49.25 49.75 49.25H6.25C4.86928 49.25 3.75 48.1307 3.75 46.75V9.25C3.75 7.8693 4.86929 6.75 6.25 6.75ZM47.9824 13.4824C48.9588 12.5061 50.5412 12.5061 51.5176 13.4824C52.4938 14.4587 52.4938 16.0413 51.5176 17.0176L35.7676 32.7676C35.2989 33.2365 34.663 33.5 34 33.5C33.337 33.5 32.7013 33.2364 32.2324 32.7676L25 25.5352L17.0176 33.5176C16.0413 34.4938 14.4587 34.4938 13.4824 33.5176C12.5061 32.5413 12.5061 30.9587 13.4824 29.9824L23.2324 20.2324C24.2087 19.2561 25.7913 19.2561 26.7676 20.2324L34 27.4648L47.9824 13.4824Z" fill="#0C111F" stroke="#0C111F" stroke-width="0.5"/>
</svg>
