<svg width="60" height="60" viewBox="0 0 60 60" fill="none" xmlns="http://www.w3.org/2000/svg">
<path d="M7.41107 26.4725C8.00383 21.6147 10.1422 17.0698 13.5166 13.496C16.891 9.92208 21.3263 7.50469 26.1803 6.5938C31.0343 5.6829 36.055 6.32579 40.5155 8.42938C44.9759 10.533 48.6447 13.9881 50.9905 18.2944M41.4023 19.9033L50.4079 19.9033C51.7953 19.9033 52.9199 18.7894 52.9199 17.4154L52.9199 8.49577" stroke="#0C111F" stroke-width="5" stroke-linecap="round"/>
<path d="M53.6534 32.1787C53.0559 37.0326 50.9152 41.5724 47.5409 45.1418C44.1665 48.7112 39.7334 51.125 34.8826 52.0344C30.0317 52.9437 25.0146 52.3013 20.5567 50.2001C16.0987 48.099 12.4311 44.6479 10.0841 40.346M19.6649 38.724L10.6593 38.724C9.27199 38.724 8.14734 39.8379 8.14734 41.2119L8.14734 50.1315" stroke="#0C111F" stroke-width="5" stroke-linecap="round"/>
</svg>
