<svg width="56" height="56" viewBox="0 0 56 56" fill="none" xmlns="http://www.w3.org/2000/svg">
<path fill-rule="evenodd" clip-rule="evenodd" d="M30.8567 11.7958C30.3821 11.6818 29.8508 11.6668 28.0276 11.6668H22.8668C20.8681 11.6668 19.5094 11.6686 18.4592 11.7544C17.4362 11.838 16.9131 11.9895 16.5481 12.1755C15.67 12.6229 14.9561 13.3368 14.5087 14.2149C14.3228 14.5798 14.1713 15.1029 14.0877 16.1259C14.0019 17.1761 14.0001 18.5348 14.0001 20.5335V28.0001H9.33343L9.33342 20.4371C9.33339 18.5589 9.33337 17.0087 9.43654 15.7459C9.5437 14.4343 9.77369 13.2287 10.3507 12.0962C11.2455 10.3401 12.6733 8.91224 14.4295 8.01742C15.562 7.44041 16.7676 7.21042 18.0792 7.10327C19.342 7.00009 20.8921 7.00012 22.7704 7.00015L28.0276 7.00015C28.1078 7.00015 28.1871 7.00011 28.2653 7.00007C29.7469 6.99937 30.8665 6.99883 31.9461 7.25803C32.8984 7.48666 33.8088 7.86377 34.6439 8.37551C35.5906 8.95563 36.3818 9.74763 37.429 10.7958C37.4843 10.8512 37.5403 10.9072 37.5971 10.964L42.7029 16.0698C42.7597 16.1266 42.8158 16.1826 42.8711 16.2379C43.9193 17.2851 44.7113 18.0763 45.2914 19.023C45.8031 19.8581 46.1802 20.7685 46.4089 21.7208C46.6681 22.8004 46.6675 23.92 46.6668 25.4016C46.6668 25.4798 46.6668 25.5591 46.6668 25.6393V35.5631C46.6668 37.4414 46.6668 38.9916 46.5636 40.2544C46.4565 41.566 46.2265 42.7716 45.6495 43.9041C44.7547 45.6602 43.3268 47.0881 41.5707 47.9829C40.4382 48.5599 39.2326 48.7899 37.921 48.897C36.6582 49.0002 35.1081 49.0002 33.2298 49.0001H30.3334V44.3335H33.1334C35.1321 44.3335 36.4908 44.3317 37.541 44.2459C38.564 44.1623 39.0871 44.0108 39.452 43.8248C40.3301 43.3774 41.044 42.6635 41.4915 41.7854C41.6774 41.4205 41.8289 40.8974 41.9125 39.8744C41.9983 38.8242 42.0001 37.4655 42.0001 35.4668V25.6393C42.0001 23.8161 41.9851 23.2848 41.8712 22.8102C41.7568 22.3341 41.5683 21.8789 41.3124 21.4613C41.0574 21.0451 40.6923 20.6589 39.4031 19.3697L34.2972 14.2638C33.0081 12.9746 32.6218 12.6095 32.2056 12.3545C31.7881 12.0986 31.3328 11.9101 30.8567 11.7958Z" fill="#0C111F"/>
<path fill-rule="evenodd" clip-rule="evenodd" d="M12.8933 38.56L15.0053 32.2241H17.6616L19.7736 38.56L26.1095 40.672V43.3283L19.7736 45.4403L17.6616 51.7762H15.0053L12.8933 45.4403L6.55737 43.3283V40.672L12.8933 38.56Z" fill="#0C111F"/>
<path fill-rule="evenodd" clip-rule="evenodd" d="M32.6668 11.6668V21.0001H42.0001V25.6668H30.3334C29.0448 25.6668 28.0001 24.6221 28.0001 23.3335V11.6668H32.6668Z" fill="#0C111F"/>
</svg>
