<svg width="72" height="72" viewBox="0 0 72 72" fill="none" xmlns="http://www.w3.org/2000/svg">
<path d="M72 36C72 16.1177 55.8823 0 36 0C16.1177 0 0 16.1177 0 36C0 55.8823 16.1177 72 36 72C55.8823 72 72 55.8823 72 36Z" fill="#494C61"/>
<path fill-rule="evenodd" clip-rule="evenodd" d="M14.6037 58.3459C19.4563 51.6243 27.3579 47.25 36.2812 47.25C45.0625 47.25 52.8544 51.4862 57.7249 58.0264C52.1386 63.5366 44.4665 66.9375 36.0001 66.9375C27.6983 66.9375 20.1603 63.6677 14.6037 58.3459ZM48.375 28.9687C48.375 35.9586 42.9605 41.625 36.2812 41.625C29.6021 41.625 24.1875 35.9586 24.1875 28.9687C24.1875 21.9789 29.6021 16.3125 36.2812 16.3125C42.9605 16.3125 48.375 21.9789 48.375 28.9687Z" fill="#F3F0F0"/>
</svg>
